<svg id="Icons" height="512" viewBox="0 0 60 60" width="512" xmlns="http://www.w3.org/2000/svg"><path d="m39 23h17a3 3 0 0 1 3 3v23a3 3 0 0 1 -3 3h-3v5.43a1.472 1.472 0 0 1 -2.34 1.27l-8.66-6.7h-18a3 3 0 0 1 -3-3v-19z" fill="#114559"/><path d="m52 26a3 3 0 0 0 -3 3v4a3 3 0 0 0 6 0v-4a3 3 0 0 0 -3-3zm1 7a1 1 0 0 1 -2 0v-4a1 1 0 0 1 2 0z" fill="#82ecff"/><path d="m44 26a3 3 0 0 0 -3 3v4a3 3 0 0 0 6 0v-4a3 3 0 0 0 -3-3zm1 7a1 1 0 0 1 -2 0v-4a1 1 0 0 1 2 0z" fill="#82ecff"/><path d="m36 38a3 3 0 0 0 -3 3v4a3 3 0 0 0 6 0v-4a3 3 0 0 0 -3-3zm1 7a1 1 0 0 1 -2 0v-4a1 1 0 0 1 2 0z" fill="#82ecff"/><path d="m28 38a3 3 0 0 0 -3 3v4a3 3 0 0 0 6 0v-4a3 3 0 0 0 -3-3zm1 7a1 1 0 0 1 -2 0v-4a1 1 0 0 1 2 0z" fill="#82ecff"/><path d="m29 33a1 1 0 0 1 -2 0v-3h-2v3a3 3 0 0 0 6 0v-3h-2z" fill="#82ecff"/><path d="m36 36a1 1 0 0 0 1-1v-6a1 1 0 0 0 -2 0v6a1 1 0 0 0 1 1z" fill="#82ecff"/><path d="m44 38a1 1 0 0 0 -1 1v8a1 1 0 0 0 2 0v-8a1 1 0 0 0 -1-1z" fill="#82ecff"/><path d="m52 38a1 1 0 0 0 -1 1v8a1 1 0 0 0 2 0v-8a1 1 0 0 0 -1-1z" fill="#82ecff"/><path d="m39 4v23a3 3 0 0 1 -3 3h-18l-8.66 6.7a1.473 1.473 0 0 1 -2.34-1.27v-5.43h-3a3 3 0 0 1 -3-3v-23a3 3 0 0 1 3-3h32a3 3 0 0 1 3 3z" fill="#e5bb33"/><g fill="#fff"><path d="m16 11a1 1 0 0 0 -1 1v6a1 1 0 0 0 2 0v-6a1 1 0 0 0 -1-1z"/><path d="m12 10a1 1 0 0 0 -1 1v8a1 1 0 0 0 2 0v-8a1 1 0 0 0 -1-1z"/><path d="m33 16v-2a1 1 0 0 0 -2 0v2a1 1 0 0 0 2 0z"/><path d="m7 14v2a1 1 0 0 0 2 0v-2a1 1 0 0 0 -2 0z"/><path d="m24 11a1 1 0 0 0 -1 1v6a1 1 0 0 0 2 0v-6a1 1 0 0 0 -1-1z"/><path d="m29 19v-8a1 1 0 0 0 -2 0v8a1 1 0 0 0 2 0z"/><path d="m20 7a1 1 0 0 0 -1 1v14a1 1 0 0 0 2 0v-14a1 1 0 0 0 -1-1z"/><path d="m7 11a1 1 0 0 0 1-1v-2a1 1 0 0 1 1-1h2a1 1 0 0 0 0-2h-2a3 3 0 0 0 -3 3v2a1 1 0 0 0 1 1z"/><path d="m31 5h-2a1 1 0 0 0 0 2h2a1 1 0 0 1 1 1v2a1 1 0 0 0 2 0v-2a3 3 0 0 0 -3-3z"/><path d="m11 23h-2a1 1 0 0 1 -1-1v-2a1 1 0 0 0 -2 0v2a3 3 0 0 0 3 3h2a1 1 0 0 0 0-2z"/><path d="m33 19a1 1 0 0 0 -1 1v2a1 1 0 0 1 -1 1h-2a1 1 0 0 0 0 2h2a3 3 0 0 0 3-3v-2a1 1 0 0 0 -1-1z"/></g></svg>