<svg id="Icons" height="512" viewBox="0 0 60 60" width="512" xmlns="http://www.w3.org/2000/svg"><path d="m31 8v42l-1 1c-.22 4.68-4.14 8-8.92 8a8.9 8.9 0 0 1 -8.64-6.74 7.8 7.8 0 0 1 -6.96-7.4 7.785 7.785 0 0 1 -4.48-7.05 7.642 7.642 0 0 1 2.05-5.24 6.655 6.655 0 0 1 .36-9.93 7.389 7.389 0 0 1 -.18-1.56 6.685 6.685 0 0 1 6.69-6.7 1.754 1.754 0 0 1 .4.03 6.389 6.389 0 0 1 -.4-2.26 6.685 6.685 0 0 1 6.7-6.69 2.748 2.748 0 0 1 .4.02 6.636 6.636 0 0 1 6.29-4.48 6.73 6.73 0 0 1 6.69 6z" fill="#e87b69"/><path d="m56.95 32.57a7.642 7.642 0 0 1 2.05 5.24 7.785 7.785 0 0 1 -4.48 7.05 7.8 7.8 0 0 1 -6.96 7.4 8.9 8.9 0 0 1 -8.64 6.74c-4.78 0-8.7-3.32-8.92-8v-44a6.73 6.73 0 0 1 6.69-6 6.636 6.636 0 0 1 6.29 4.48 2.748 2.748 0 0 1 .4-.02 6.685 6.685 0 0 1 6.7 6.69 6.389 6.389 0 0 1 -.4 2.26 1.754 1.754 0 0 1 .4-.03 6.685 6.685 0 0 1 6.69 6.7 7.389 7.389 0 0 1 -.18 1.56 6.655 6.655 0 0 1 .36 9.93z" fill="#e1eaf4"/><path d="m22 49a1 1 0 0 1 -1-1 4 4 0 0 0 -4-4 1 1 0 0 1 0-2 6.006 6.006 0 0 1 6 6 1 1 0 0 1 -1 1z" fill="#c16053"/><path d="m24 32a1 1 0 0 1 -1-1 4 4 0 0 0 -4-4 1 1 0 0 1 0-2 6.006 6.006 0 0 1 6 6 1 1 0 0 1 -1 1z" fill="#c16053"/><path d="m9 38a1 1 0 0 1 -1-1 6.006 6.006 0 0 1 6-6 1 1 0 0 1 0 2 4 4 0 0 0 -4 4 1 1 0 0 1 -1 1z" fill="#c16053"/><path d="m16 20a1 1 0 0 1 -1-1 6.006 6.006 0 0 1 6-6 1 1 0 0 1 0 2 4 4 0 0 0 -4 4 1 1 0 0 1 -1 1z" fill="#c16053"/><g fill="#5fc4c6"><path d="m35 16h-5v-2h5a1 1 0 0 0 1-1v-3h2v3a3 3 0 0 1 -3 3z"/><path d="m30 20h13v2h-13z"/><path d="m30 26h18v2h-18z"/><path d="m30 32h10a1 1 0 0 1 0 2h-10z"/><path d="m38 50h-2v-3a1 1 0 0 0 -1-1h-5v-2h5a3 3 0 0 1 3 3z"/><path d="m30 38h13v2h-13z"/></g><circle cx="37" cy="9" fill="#205b75" r="2"/><circle cx="44" cy="21" fill="#205b75" r="2"/><circle cx="49" cy="27" fill="#205b75" r="2"/><circle cx="37" cy="51" fill="#205b75" r="2"/><circle cx="44" cy="39" fill="#205b75" r="2"/></svg>