<svg id="Icons" height="512" viewBox="0 0 60 60" width="512" xmlns="http://www.w3.org/2000/svg"><path d="m6 59h-4a1 1 0 0 1 -1-1v-1a5 5 0 0 1 5-5h.77z" fill="#abbbcc"/><path d="m41.23 52h.77a5 5 0 0 1 5 5v1a1 1 0 0 1 -1 1h-4z" fill="#abbbcc"/><path d="m19 46h10v6h-10z" fill="#abbbcc"/><path d="m20 18a4 4 0 0 1 7-2.64l1 3.64z" fill="#abbbcc"/><path d="m6 27v11h-1a4 4 0 0 1 -4-4v-3a4 4 0 0 1 4-4z" fill="#abbbcc"/><path d="m42 27v11h1a4 4 0 0 0 4-4v-3a4 4 0 0 0 -4-4z" fill="#abbbcc"/><path d="m43 32.44v6.56a8 8 0 0 1 -8 8h-22a8 8 0 0 1 -8-8v-13a8 8 0 0 1 8-8h14z" fill="#e1eaf4"/><path d="m39 22v16a5 5 0 0 1 -5 5h-20a5 5 0 0 1 -5-5v-11a5 5 0 0 1 5-5z" fill="#347f91"/><circle cx="16.5" cy="29.5" fill="#82ecff" r="3.5"/><circle cx="31.5" cy="29.5" fill="#82ecff" r="3.5"/><path d="m27.317 35a.664.664 0 0 1 .671.768 4.076 4.076 0 0 1 -7.976 0 .664.664 0 0 1 .671-.768z" fill="#82ecff"/><path d="m9 51h30a3 3 0 0 1 3 3v5a0 0 0 0 1 0 0h-36a0 0 0 0 1 0 0v-5a3 3 0 0 1 3-3z" fill="#e1eaf4"/><path d="m38 59v-3a1 1 0 0 0 -1-1h-26a1 1 0 0 0 -1 1v3z" fill="#347f91"/><path d="m59 3v23a2.006 2.006 0 0 1 -2 2h-7l-9.16 5.81a1.194 1.194 0 0 1 -1.84-1.01v-4.8h-10a2.006 2.006 0 0 1 -2-2v-23a2.006 2.006 0 0 1 2-2h28a2.006 2.006 0 0 1 2 2z" fill="#e87b69"/><g fill="#fff"><path d="m50 5a6.006 6.006 0 0 0 -6 6 1 1 0 0 0 2 0 4 4 0 1 1 4 4 1 1 0 0 0 -1 1v2a1 1 0 0 0 2 0v-1.083a6 6 0 0 0 -1-11.917z"/><path d="m50 21a1 1 0 0 0 -1 1v1a1 1 0 0 0 2 0v-1a1 1 0 0 0 -1-1z"/><path d="m41 6h-10a1 1 0 0 0 0 2h10a1 1 0 0 0 0-2z"/><path d="m41 11h-4a1 1 0 0 0 0 2h4a1 1 0 0 0 0-2z"/><path d="m31 13h2a1 1 0 0 0 0-2h-2a1 1 0 0 0 0 2z"/><path d="m41 16h-10a1 1 0 0 0 0 2h10a1 1 0 0 0 0-2z"/><path d="m36 21h-5a1 1 0 0 0 0 2h5a1 1 0 0 0 0-2z"/></g></svg>